<?xml version="1.0" standalone="no"?>
<!DOCTYPE svg PUBLIC "-//W3C//DTD SVG 20010904//EN"
 "http://www.w3.org/TR/2001/REC-SVG-20010904/DTD/svg10.dtd">
<svg version="1.0" xmlns="http://www.w3.org/2000/svg"
 width="172.000000pt" height="65.000000pt" viewBox="0 0 172.000000 65.000000"
 preserveAspectRatio="xMidYMid meet">

<g transform="translate(0.000000,65.000000) scale(0.100000,-0.100000)"
fill="#000000" stroke="#000000" stroke-width="4">
<path d="M1325 629 c-88 -11 -205 -23 -260 -28 l-100 -8 80 -2 c69 -1 202 11
515 47 l75 9 -75 1 c-41 0 -147 -9 -235 -19z"/>
<path d="M311 615 c-72 -34 -178 -143 -230 -237 -142 -254 -83 -417 116 -318
62 31 153 104 153 122 0 6 -19 -7 -43 -29 -85 -79 -192 -124 -240 -102 -48 22
-59 88 -31 187 42 147 137 273 263 354 58 36 91 37 91 3 0 -30 -31 -95 -54
-114 -9 -8 -16 -21 -16 -29 0 -25 33 12 64 72 28 53 33 85 14 104 -17 17 -25
15 -87 -13z"/>
<path d="M679 570 c-9 -14 -24 -49 -34 -77 -9 -29 -21 -53 -26 -53 -13 0 -12
10 11 74 26 77 4 67 -27 -12 l-25 -62 -104 0 c-63 0 -104 -4 -104 -10 0 -6 40
-10 100 -10 55 0 100 -1 100 -2 0 -18 -45 -116 -58 -125 -23 -19 -27 -16 -27
19 0 17 -5 33 -11 35 -19 6 -64 -45 -64 -73 0 -28 4 -29 77 -6 l32 10 -30 -84
c-17 -46 -29 -89 -27 -95 2 -7 19 30 38 82 39 109 99 239 110 239 4 0 -14 -68
-41 -152 -26 -84 -46 -154 -44 -157 8 -7 12 1 39 90 14 48 40 117 57 154 l32
67 109 -4 c132 -6 130 9 -3 18 l-96 7 19 50 c10 27 18 62 16 76 l-3 26 -16
-25z m-203 -256 c-3 -9 -6 -18 -6 -20 0 -3 -4 -3 -10 1 -11 7 -2 35 12 35 6 0
7 -7 4 -16z m-35 -47 c-15 -15 -24 -2 -16 24 7 20 8 21 17 5 7 -12 7 -21 -1
-29z"/>
<path d="M1246 538 c-13 -29 -26 -63 -30 -75 -4 -13 -12 -23 -17 -23 -5 0 -9
-7 -9 -16 0 -9 -29 -103 -66 -210 -36 -107 -62 -199 -58 -206 9 -15 35 19 27
38 -5 15 8 58 74 247 l45 127 114 0 113 0 -20 -59 c-23 -68 -56 -94 -91 -72
-16 10 -23 10 -37 -3 -23 -21 -41 -20 -41 2 0 40 67 73 94 47 13 -14 16 -14
16 -2 0 31 -56 36 -92 7 -32 -24 -40 -53 -23 -77 13 -17 15 -17 43 -1 21 13
32 14 40 6 9 -9 18 -9 37 0 31 14 31 13 0 -78 -29 -84 -28 -80 -16 -80 4 0 18
35 31 78 12 42 39 112 58 156 l36 78 108 -4 c133 -6 130 9 -3 18 l-96 7 18 48
c11 27 19 61 19 75 0 42 -23 14 -49 -61 l-23 -65 -109 0 c-60 0 -109 2 -109 5
0 3 14 32 30 65 32 64 36 80 19 80 -5 0 -20 -24 -33 -52z"/>
<path d="M640 322 c-52 -52 -35 -83 32 -61 31 10 41 10 47 0 6 -9 13 -5 25 14
17 25 19 26 36 10 12 -11 26 -14 39 -10 29 9 27 27 -2 20 -15 -4 -28 -1 -36 9
-7 9 -17 13 -22 10 -5 -3 -6 3 -2 13 4 10 -7 4 -24 -14 -17 -18 -33 -33 -36
-33 -3 0 -4 14 -3 31 2 43 -18 47 -54 11z m31 -25 c-8 -8 -11 -7 -11 4 0 20
13 34 18 19 3 -7 -1 -17 -7 -23z m-18 -29 c-2 -5 -8 -8 -14 -8 -11 0 -12 33
-2 44 8 8 23 -25 16 -36z"/>
<path d="M1454 325 c-10 -25 4 -48 25 -42 11 3 22 -1 25 -9 7 -19 73 -15 81 5
5 13 7 13 15 1 7 -12 12 -11 28 4 19 17 20 17 27 -3 7 -24 22 -26 48 -7 23 18
22 29 -2 16 -27 -14 -31 -13 -31 10 0 20 -24 28 -34 11 -9 -15 -45 -1 -39 15
3 8 0 14 -6 14 -6 0 -11 -6 -11 -13 0 -20 -47 -60 -60 -52 -7 4 -10 16 -7 26
5 20 -7 26 -18 9 -3 -5 -13 -10 -21 -10 -11 0 -13 6 -9 20 7 23 -3 27 -11 5z"/>
</g>
</svg>
